<svg id="Layer_1" data-name="Layer 1" xmlns="http://www.w3.org/2000/svg" viewBox="0 0 805.92 93.21">
  <defs>
    <style>
      .cls-1 {
        fill: #fff;
      }

      .cls-2 {
        fill: #f7921e;
      }

      .cls-3 {
        fill: #003263;
      }
    </style>
  </defs>
  <polygon class="cls-1" points="766.3 75.23 705.83 75.02 702.71 64.63 706.04 55.28 762.77 55.07 768.59 56.94 769.84 62.97 766.3 75.23"/>
  <rect class="cls-1" x="37.08" y="1.66" width="22.44" height="40.11"/>
  <g>
    <path class="cls-2" d="M826.63,289.66q-17.21-5.15-36.33-9.84l1,3.05C814.12,286.9,826.63,289.66,826.63,289.66Z" transform="translate(-20.71 -220.12)"/>
    <path class="cls-2" d="M751.75,275h17.81c-92.65-20.44-213.31-32.8-345.28-32.8-161.77,0-306.57,18.57-403.57,47.83,0,0,169.31-38.17,402.07-38.17a2225,2225,0,0,1,329,24.54Z" transform="translate(-20.71 -220.12)"/>
  </g>
  <path class="cls-3" d="M54.25,220.12v93.21h28.8V220.12ZM77.33,239.9H70.22v3.43h7.11v4.38h-14v3.83h14v4.38h-14v3.92H60V243.33h6.72V239.9H60v-4.39H77.33Zm0-5.65H60V223.34h3.36v6.52h3.51v-4.38h3.36v4.38h3.6v-6.52h3.51Z" transform="translate(-20.71 -220.12)"/>
  <path class="cls-3" d="M148.8,313.33,122,269.72l-8.29-16.85-.27.27.27,1.09a59.22,59.22,0,0,1,1.9,15.62v43.48H92.41V220.12h27l31.25,52,.27-.27-2-25.82V220.12h23.24v93.21Z" transform="translate(-20.71 -220.12)"/>
  <path class="cls-3" d="M221.76,313.33H194.58V242.54H175V220.12h65.9v22.42H221.76Z" transform="translate(-20.71 -220.12)"/>
  <path class="cls-3" d="M313.75,313.33h-70V220.12h70v21.47h-42v13.59h34V276h-34v15.08h42Z" transform="translate(-20.71 -220.12)"/>
  <path class="cls-3" d="M371.21,313.33l-13.59-35.6h-9v35.6H319.71V220.12h47.42c8.16,0,17.12,1.09,24.05,5.71,7.75,4.89,11.42,13.18,11.42,22.28,0,12.23-5.44,19.57-16.44,24.6L403,313.33Zm-12.09-55.57c6.25,0,13.72-.95,13.72-9a8.54,8.54,0,0,0-4.48-7.61c-2.45-1.22-5.44-1.22-8.16-1.22H348.65v17.8Z" transform="translate(-20.71 -220.12)"/>
  <path class="cls-3" d="M508.71,313.33H482.08V246.75h-.27l-17,66.58H446.61l-17.52-66.58h-.28v66.58H407.35V220.12h37.36L458,269.58h.27l12.77-49.46h37.64Z" transform="translate(-20.71 -220.12)"/>
  <path class="cls-3" d="M587.05,313.33h-70V220.12h70v21.47h-42v13.59h34V276h-34v15.08h42Z" transform="translate(-20.71 -220.12)"/>
  <path class="cls-3" d="M594.42,220.12h34.37c13.46,0,24.19,1.77,34.25,11.41,9.78,9.24,14.26,22,14.26,35.33,0,12.23-4.35,25-12.91,33.84-9.24,9.64-20.79,12.63-33.69,12.63H594.42Zm32.74,71.74c3.81,0,6.25.28,9.79-1.63a16.43,16.43,0,0,0,6.11-6.11c3.26-5.44,4.35-11.69,4.35-17.94s-1.77-14.4-5.71-19.56c-4.48-5.57-8.83-5.3-15.35-5.3h-3.26v50.54Z" transform="translate(-20.71 -220.12)"/>
  <path class="cls-3" d="M710.72,313.33H681.91V220.12h28.81Z" transform="translate(-20.71 -220.12)"/>
  <polygon class="cls-2" points="71.67 52.01 95.04 47.44 94.92 53.38 71.73 56.94 71.67 52.01"/>
  <polygon class="cls-2" points="129.23 41.69 151.54 38.44 151.79 46.07 129.73 48.76 129.23 41.69"/>
  <polygon class="cls-2" points="349.23 22.82 382.17 22.13 381.98 31.82 350.67 32.32 349.23 22.82"/>
  <polygon class="cls-2" points="444.11 22.44 490.73 23.88 489.17 33.44 441.54 32.07 444.11 22.44"/>
  <polygon class="cls-2" points="572.67 29.19 602.67 32.01 602.67 40.82 572.29 38.38 572.67 29.19"/>
  <g>
    <path class="cls-3" d="M744,279.42h-.74v3.84h.86c1.65,0,2.72-.51,2.72-1.9C746.8,279.56,745.42,279.42,744,279.42Z" transform="translate(-20.71 -220.12)"/>
    <path class="cls-3" d="M757.28,279.07c-2,0-2,2.39-2,5.8s0,5.8,2,5.8,2-2.39,2-5.8S759.3,279.07,757.28,279.07Z" transform="translate(-20.71 -220.12)"/>
    <path class="cls-3" d="M772.52,220.12H742.36l-28.94,93.21h23.23L742.36,295h24.87l5.29,18.34h29.22Zm-17.8,27.45,7.61,27H747.12Zm-22.82,43.1c1.48,0,2.12-1.73,2.12-2.83h-2.2v-2.92h6v8.89H736l-.85-1.61a5.18,5.18,0,0,1-3.8,1.68c-4.53,0-6.38-3.55-6.38-8.57,0-4.6,1.41-9.45,6.74-9.45,4.31,0,6.24,2.68,6.24,6.53H733.7c-.12-2.05-.27-3.32-1.9-3.32-1.85,0-2.12,2.61-2.12,5.83C729.68,288.45,729.85,290.67,731.9,290.67Zm25.38,3.21c-5.16,0-6.75-4.58-6.75-9,0-.56,0-1.12.08-1.68a4.46,4.46,0,0,1-2.32,1.92l2.9,8.43h-4.34l-2.16-7.5h-1.47v7.5h-4.38V276.2h6.53c3.08,0,5.5,1.33,5.79,4.31.86-2.64,2.7-4.65,6.12-4.65,5.16,0,6.74,4.58,6.74,9S762.44,293.88,757.28,293.88ZM776.16,288c0,3.89-2.17,5.84-6,5.84s-5.74-2.12-5.74-5.84V276.2h4.38v12c0,1.32.44,2.44,1.9,2.44s1.8-1.37,1.8-2.66V276.2h3.66Zm7.33-1.44c-.56,0-1.12-.05-1.68-.1v7h-4.38V276.2H784c3.27,0,5.9,1.51,5.9,4.92C789.85,285.11,787,286.6,783.49,286.6Z" transform="translate(-20.71 -220.12)"/>
    <path class="cls-3" d="M782.59,279.27h-.78v4.26h.78c1.27,0,2.73-.49,2.73-2.12S783.86,279.27,782.59,279.27Z" transform="translate(-20.71 -220.12)"/>
  </g>
  <path class="cls-2" d="M173.2,258.38q-12.19,1.69-24,3.53l.75,7q11.3-1.43,23.43-2.81Z" transform="translate(-20.71 -220.12)"/>
  <path class="cls-2" d="M272.5,247.85q-14.75,1.13-29.12,2.47l-.13,8.95c19.93-1.64,40.91-3.09,62.81-4.26Z" transform="translate(-20.71 -220.12)"/>
  <path class="cls-2" d="M712.78,264.08q-16.26-2.71-33.31-5.12l-.16,7.77q17.49,2,33.21,4.1Z" transform="translate(-20.71 -220.12)"/>
  <path class="cls-2" d="M625.27,252.31q-16.26-1.71-33-3.15l.52,9.26q16.57,1.26,32.25,2.7Z" transform="translate(-20.71 -220.12)"/>
  <path class="cls-2" d="M512.5,244.07q-24-1-48.75-1.5L461,252.2q26,.47,50.74,1.48Z" transform="translate(-20.71 -220.12)"/>
  <path class="cls-2" d="M403,242.31q-17,.16-33.69.61l1.44,9.58q16.1-.39,32.69-.55Z" transform="translate(-20.71 -220.12)"/>
  <path class="cls-2" d="M116.38,267.47q-12.78,2.34-25,4.88l.49,4.76c7.75-1.21,16.08-2.46,24.94-3.72Z" transform="translate(-20.71 -220.12)"/>
</svg>
